<?xml version="1.0" encoding="UTF-8"?>
<svg version="1.1" viewBox="0 0 2000 2000" width="500" height="500" xmlns="http://www.w3.org/2000/svg">
<path transform="translate(835,558)" d="m0 0h46l28 3 37 7 11 1 429 1 1 1v38l-1 1-20 3-17 7-11 8-13 13-8 13-5 11-3 12-1 17-2 2h-69v503l-2 1h-142v-504l-81 1-17 34-4-2-19-11-17-8-29-11-25-7-18-3h-34l-16 3-12 5-10 6-7 6-6 9-4 9-2 8v16l4 11 4 6 5 6 18 13 21 12 17 9 36 16 38 17 22 11 18 11 17 12 14 11 13 12 17 17 13 18 9 16 6 15 4 13 3 21v25l-2 22-5 24-6 20-9 20-11 18-11 14-6 7-8 7-14 11-20 12-16 8-19 8-27 8-31 6-30 3-26 1-35-2-31-4-32-7-29-9-19-8-25-12-28-15-21-14-14-11 1-6 24-40 16-27 15-25 10-17 4-6 5 2 18 14 19 12 22 12 24 12 22 9 22 6 13 2h28l20-3 15-4 16-8 10-8 7-11 4-11 2-16-2-14-4-9-6-9-8-8-16-11-15-9-23-12-70-33-20-11-11-7-14-10-11-9-12-11-9-9-11-14-10-15-8-15-7-19-2-6v-5l19-7 21-10 20-12 13-11 10-9 7-6 9-11 10-14 10-17 9-19 5-15 6-25 2-16v-42l5-3 25-5z"/>
<path transform="translate(690,610)" d="m0 0 16 1 11 4 10 9 7 9 4 11 1 6v10l-3 14-7 12-7 7-8 5-7 2h-29l-10-4-10-9-6-9-4-9v-26l3-8 7-11 9-8 12-5z" fill="#010101"/>
<path transform="translate(1268,1264)" d="m0 0h27l9 2 6 4 6 7 4 10 1 5v11l-3 12-7 11-7 4-3 1-31 1-3-1v-66zm15 12-2 1-1 8v34h18l5-3 3-5 2-13-2-13-4-6-3-2-6-1z" fill="#080808"/>
<path transform="translate(1364,1265)" d="m0 0h15l10 5 7 7 5 10 1 3v15l-4 11-8 9-9 5-4 1h-12l-10-4-5-4-6-9-3-7-1-5v-9l3-10 6-9 7-6zm5 12-7 3-5 5-4 8v10l4 8 6 5 4 2h9l8-5 4-6 1-4v-12l-4-7-7-6z" fill="#030303"/>
<path transform="translate(898,1264)" d="m0 0 9 1 7 5 4 8v7l-4 7-5 4 2 4 6 6 4-1 5-5 5 1 4 4-2 4-6 6 2 6 7 8v2h-14l-3-5v-2l-15 7h-12l-8-5-4-9 1-9 5-8 5-5-7-8-3-6 2-6 4-6 7-4zm1 11-5 3 1 6 5 4 5-2 2-3-1-5-5-3zm-3 29-5 6v7l4 4 8-1 6-4-2-5-5-6z" fill="#040404"/>
<path transform="translate(1178,1263)" d="m0 0h4l-1 5-15 24-1 5 14 23 6 9v2l-2 1h-8l-5-1-14-21h-2l-11 18-5 4h-12v-3l13-21 7-11-1-5-11-18-5-8v-2h14l7 10 4 7h2l11-16 1-1z" fill="#050505"/>
<path transform="translate(1055,1264)" d="m0 0h12l1 1 1 43 3 6 5 3h6l4-2 3-7 1-34 1-10h12l1 7v31l-2 13-3 6-4 5-10 5h-11l-10-4-6-7-4-10z" fill="#090909"/>
<path transform="translate(666,1264)" d="m0 0h12l1 1 1 43 3 6 5 3h6l5-3 2-5 1-9 1-36h12l1 2v36l-1 11-4 8-4 5-10 5h-11l-8-3-7-6-4-7-1-4z" fill="#030303"/>
<path transform="translate(1207,1264)" d="m0 0h38l1 4-1 8-1 1h-23l-1 14h21l2 1-1 11-2 1-20-1v16h25l1 7v5l-9 1h-29l-1-1z" fill="#0B0B0B"/>
<path transform="translate(620,1264)" d="m0 0 11 1 8 4 4 4-1 4-5 4-5-1-7-3-7 1-5 5v4l4 2 7 3 12 3 6 4 5 7v9l-4 8-8 6-5 2h-15l-10-5-5-6 1-5 8-4 7 6 10 1 5-3 1-5-3-3-17-5-6-4-5-6-1-3v-8l4-8 7-6z" fill="#040404"/>
<path transform="translate(991,1264)" d="m0 0h45v12l-15 1-1 54-1 1h-10l-2-1-1-54-16-1v-11z" fill="#070707"/>
<path transform="translate(778,1264)" d="m0 0h45l1 1v10l-1 1-14 1-1 54-1 1h-9l-3-1-1-54-16-1z" fill="#070707"/>
<path transform="translate(737,1264)" d="m0 0h21l1 1v10l-5 1 1 43 4 2 1 9-1 1h-23v-8l4-4 1-43-5-2v-7z" fill="#030303"/>
</svg>